<?xml version="1.0" encoding="UTF-8" standalone="no"?>
<svg
   width="15.759238pt"
   height="16.420401pt"
   version="1.1"
   viewBox="0 0 15.759238 16.420401"
   id="svg145"
   sodipodi:docname="disabled-parking.svg"
   inkscape:version="1.2.2 (b0a8486541, 2022-12-01)"
   xmlns:inkscape="http://www.inkscape.org/namespaces/inkscape"
   xmlns:sodipodi="http://sodipodi.sourceforge.net/DTD/sodipodi-0.dtd"
   xmlns="http://www.w3.org/2000/svg"
   xmlns:svg="http://www.w3.org/2000/svg">
  <defs
     id="defs149" />
  <sodipodi:namedview
     id="namedview147"
     pagecolor="#ffffff"
     bordercolor="#666666"
     borderopacity="1.0"
     inkscape:showpageshadow="2"
     inkscape:pageopacity="0.0"
     inkscape:pagecheckerboard="0"
     inkscape:deskcolor="#d1d1d1"
     inkscape:document-units="pt"
     showgrid="false"
     inkscape:zoom="1.77"
     inkscape:cx="-88.418079"
     inkscape:cy="10.734463"
     inkscape:window-width="2560"
     inkscape:window-height="1371"
     inkscape:window-x="1080"
     inkscape:window-y="248"
     inkscape:window-maximized="1"
     inkscape:current-layer="svg145" />
  <g
     fill-rule="evenodd"
     id="g143"
     transform="matrix(0.19,0,0,0.19,-1.620399,-1.2898)">
    <path
       d="M 16.602,71.219 H 83.399 V 14.949 H 16.602 Z M 83.399,8.949 H 16.602 c -3.3164,0 -6,2.6875 -6,6 v 56.27 c 0,3.3164 2.6836,6 6,6 h 27.277 v 7.832 c 0,3.3125 2.6875,6 6,6 h 0.24219 c 3.3125,0 6,-2.6875 6,-6 v -7.832 h 27.277 c 3.3164,0 6,-2.6836 6,-6 v -56.27 c 0,-3.3125 -2.6836,-6 -6,-6 z"
       id="path133" />
    <path
       d="m 32.391,31.363 c 0.48047,0 0.95703,-0.03516 1.4336,-0.10938 0.42578,-0.0625 0.83984,-0.20703 1.2109,-0.42969 0.35547,-0.21484 0.64453,-0.52734 0.83984,-0.89453 0.42188,-0.96484 0.42188,-2.0625 0,-3.0273 -0.19531,-0.36719 -0.48438,-0.67969 -0.83984,-0.89844 -0.375,-0.21875 -0.78516,-0.36328 -1.2109,-0.42969 -0.47656,-0.07031 -0.95312,-0.10938 -1.4336,-0.10547 h -3.3594 v 5.8906 z m 1.1836,-9.25 c 1.0703,-0.03125 2.1406,0.15234 3.1406,0.53516 0.79688,0.3125 1.5156,0.79687 2.1055,1.418 0.53516,0.57812 0.9375,1.2617 1.1797,2.0078 0.49609,1.5195 0.49609,3.1523 0,4.668 -0.24219,0.75391 -0.64844,1.4453 -1.1836,2.0234 -0.58984,0.62109 -1.3086,1.1055 -2.1055,1.418 -1.0039,0.38281 -2.0703,0.56641 -3.1406,0.53906 h -4.5391 v 7.0469 h -4.3203 v -19.656 z"
       id="path135" />
    <path
       d="m 73.242,62.551 c -0.22656,0.05859 -0.46484,0.08984 -0.69922,0.08984 -1.3906,-0.0039 -2.5977,-0.95703 -2.9219,-2.3125 l -2.0117,-8.3906 -11.488,0.0039 c -1.457,0 -2.707,-1.0508 -2.957,-2.4922 l -2.5625,-14.918 c -0.16406,-0.79688 0.0039,-1.6211 0.46094,-2.293 0.45703,-0.66797 1.168,-1.125 1.9688,-1.2617 0.79688,-0.13672 1.6172,0.05469 2.2734,0.53125 0.65625,0.47656 1.0898,1.1992 1.207,2.0039 l 0.25,1.4609 h 10.512 l -0.0039,-0.0039 c 1.6562,0 3,1.3438 3,3 0,1.6562 -1.3438,3 -3,3 h -9.4805 l 0.85156,4.9727 h 11.34 c 1.3867,0 2.5938,0.94922 2.918,2.3008 l 2.5586,10.699 h 0.0039 c 0.37891,1.6094 -0.61328,3.2227 -2.2227,3.6094"
       id="path137" />
    <path
       d="m 64.492,55.98 0.64844,2.6992 h 0.0039 c -0.44531,0.66016 -0.95312,1.2734 -1.5234,1.832 -2.4805,2.4805 -5.8789,3.832 -9.3867,3.7266 -3.5078,0.10547 -6.9062,-1.2422 -9.3867,-3.7227 -2.4805,-2.4844 -3.8281,-5.8789 -3.7266,-9.3867 -0.09766,-3.5078 1.2461,-6.9023 3.7227,-9.3906 0.76562,-0.76562 1.625,-1.4336 2.5586,-1.9883 l 1.3008,6.6719 c -1.0859,1.3203 -1.6484,2.9961 -1.582,4.707 0.06641,2.8711 1.8164,5.4375 4.4648,6.5469 2.6484,1.1094 5.7031,0.55859 7.7969,-1.4062 0.09375,-0.08984 0.17969,-0.1875 0.26172,-0.28906 z"
       id="path139" />
    <path
       d="m 49.562,28.52 c -0.93359,-0.94531 -1.4375,-2.2305 -1.3906,-3.5586 -0.03906,-1.3398 0.46484,-2.6328 1.3984,-3.5938 0.93359,-0.95703 2.2148,-1.5 3.5508,-1.5 1.3398,0 2.6211,0.54297 3.5508,1.5 0.93359,0.96094 1.4375,2.2539 1.3984,3.5938 -0.03125,2 -1.2461,3.7891 -3.0898,4.5586 -1.8438,0.77344 -3.9727,0.37891 -5.418,-1"
       id="path141" />
  </g>
</svg>
